<?xml version="1.0" standalone="no"?>
<!DOCTYPE svg PUBLIC "-//W3C//DTD SVG 20010904//EN"
 "http://www.w3.org/TR/2001/REC-SVG-20010904/DTD/svg10.dtd">
<svg version="1.0" xmlns="http://www.w3.org/2000/svg"
 width="675.000000pt" height="675.000000pt" viewBox="0 0 675.000000 675.000000"
 preserveAspectRatio="xMidYMid meet">
<metadata>
Created by potrace 1.11, written by Peter Selinger 2001-2013
</metadata>
<g transform="translate(0.000000,675.000000) scale(0.100000,-0.100000)"
fill="#000000" stroke="none">
<path d="M4862 6339 c-121 -34 -283 -113 -332 -162 -19 -19 -69 -55 -110 -80
-41 -25 -97 -66 -123 -92 -27 -25 -71 -57 -99 -71 -27 -14 -86 -56 -129 -94
-82 -70 -149 -110 -187 -110 -38 0 -74 -20 -121 -67 -65 -65 -221 -131 -440
-188 -127 -33 -174 -52 -246 -97 -133 -83 -161 -109 -247 -225 -23 -31 -48
-49 -95 -69 -51 -22 -80 -45 -160 -128 -83 -86 -111 -108 -183 -143 -47 -24
-119 -49 -160 -58 -173 -35 -241 -56 -355 -106 -158 -71 -218 -107 -286 -171
-100 -93 -152 -134 -224 -172 -50 -26 -82 -52 -110 -88 -38 -49 -92 -110 -179
-202 -21 -23 -53 -63 -71 -89 -41 -61 -79 -88 -174 -128 -42 -17 -87 -39 -101
-49 -14 -9 -47 -27 -75 -39 -63 -28 -91 -54 -106 -100 -14 -45 -27 -61 -48
-61 -9 -1 -50 -20 -91 -43 -123 -70 -161 -140 -131 -245 13 -44 -1 -80 -34
-88 -31 -8 -65 -49 -65 -78 0 -25 -28 -69 -39 -62 -16 10 -111 -96 -111 -125
0 -8 16 -36 35 -63 30 -43 35 -57 35 -105 0 -36 -9 -77 -25 -116 -30 -72 -31
-103 -6 -181 11 -32 24 -78 30 -101 6 -23 24 -52 39 -65 47 -40 122 -134 134
-168 10 -30 9 -35 -11 -52 -13 -10 -40 -22 -62 -28 -66 -18 -71 -54 -16 -122
47 -58 58 -83 74 -156 27 -132 112 -237 261 -327 46 -27 105 -66 130 -86 26
-20 73 -50 104 -67 56 -30 158 -101 187 -130 8 -7 39 -32 69 -54 40 -30 61
-54 79 -94 27 -60 60 -91 107 -99 17 -4 67 -36 115 -75 80 -65 92 -71 235
-118 170 -57 191 -60 441 -71 141 -6 186 -5 207 6 38 18 71 16 100 -6 41 -33
72 -35 131 -11 52 22 56 22 103 6 62 -20 104 -22 226 -8 79 8 106 8 145 -4 36
-11 75 -13 158 -8 108 7 125 5 385 -37 90 -15 396 -113 465 -149 31 -17 65
-30 74 -30 36 0 91 90 91 150 0 34 38 80 65 80 27 0 72 28 78 49 7 26 -27 79
-59 91 -14 6 -39 10 -56 10 -54 0 -91 27 -146 109 -30 43 -78 103 -108 132
-89 88 -71 133 84 209 69 34 142 84 206 143 21 20 58 48 82 63 24 16 44 31 44
35 0 4 30 30 68 57 90 66 151 127 219 220 71 95 206 233 252 257 37 19 83 15
256 -21 61 -12 171 -16 415 -15 25 0 97 0 161 1 84 0 141 -5 203 -20 48 -11
106 -20 129 -20 23 0 75 -9 115 -20 39 -11 82 -20 95 -20 13 0 61 -13 107 -30
76 -26 98 -30 206 -30 116 0 122 1 166 29 37 24 48 37 53 65 8 40 -7 67 -73
128 -31 29 -40 47 -45 83 -12 83 -35 112 -198 246 -41 33 -83 64 -94 69 -12 4
-81 40 -155 80 -74 39 -196 95 -270 122 -126 47 -143 51 -260 58 -186 12 -251
38 -316 128 -22 31 -44 65 -47 75 -4 10 4 62 17 115 13 53 38 160 56 237 47
202 99 335 173 445 17 25 33 47 36 50 3 3 26 30 51 60 49 60 151 168 302 322
54 54 137 144 184 201 47 56 96 113 107 127 81 95 196 279 281 448 42 84 82
212 106 339 20 106 20 114 5 147 -22 47 -64 87 -150 146 -101 68 -139 86 -332
151 -96 32 -195 71 -221 85 -26 15 -67 38 -92 51 -79 42 -154 97 -167 123 -7
14 -15 42 -18 63 -5 28 -19 52 -53 87 -26 26 -68 70 -94 97 -73 76 -119 103
-239 140 -138 42 -198 42 -337 2z"/>
</g>
</svg>
